<?xml version="1.0" standalone="no"?>
<!DOCTYPE svg PUBLIC "-//W3C//DTD SVG 20010904//EN"
 "http://www.w3.org/TR/2001/REC-SVG-20010904/DTD/svg10.dtd">
<svg version="1.0" xmlns="http://www.w3.org/2000/svg"
 width="264.000000pt" height="280.000000pt" viewBox="0 0 264.000000 280.000000"
 preserveAspectRatio="xMidYMid meet">

<g transform="translate(0.000000,280.000000) scale(0.100000,-0.100000)"
fill="#000000" stroke="none">
<path d="M1178 2371 c-175 -56 -303 -208 -328 -389 -6 -41 -8 -77 -5 -82 3 -5
-67 -10 -156 -12 l-161 -3 -24 -28 c-13 -15 -24 -39 -24 -53 0 -18 -5 -24 -21
-24 -11 0 -34 -13 -50 -29 l-29 -30 2 -579 c3 -554 4 -581 22 -601 19 -21 26
-21 388 -21 236 0 376 -4 389 -10 10 -6 19 -19 19 -29 0 -10 9 -30 21 -45 19
-24 26 -26 99 -26 73 0 80 2 99 26 12 15 21 35 21 45 0 10 9 23 19 29 13 6
153 10 389 10 362 0 369 0 388 21 18 20 19 47 22 601 l2 579 -29 30 c-16 16
-39 29 -50 29 -16 0 -21 6 -21 24 0 14 -11 38 -24 53 l-24 28 -161 3 c-89 2
-159 7 -156 12 3 5 1 41 -5 82 -25 181 -155 335 -329 388 -81 26 -205 26 -283
1z m122 -137 l0 -116 -67 7 c-38 4 -73 10 -80 14 -15 8 45 138 78 167 20 18
58 43 67 44 1 0 2 -52 2 -116z m117 64 c33 -35 84 -152 70 -159 -7 -4 -42 -10
-79 -14 l-68 -7 0 116 0 117 28 -15 c15 -8 37 -25 49 -38z m-256 -8 c-16 -22
-37 -63 -47 -90 -10 -28 -20 -50 -23 -49 -4 0 -28 10 -54 22 l-48 22 38 37
c34 33 136 97 156 98 4 0 -6 -18 -22 -40z m359 9 c31 -17 74 -47 94 -68 l37
-38 -52 -22 c-29 -11 -53 -20 -54 -19 -1 2 -10 25 -20 51 -10 27 -31 66 -47
88 -15 21 -25 39 -22 39 3 0 32 -14 64 -31z m-444 -238 c-3 -24 -6 -61 -6 -82
l0 -39 -91 0 -91 0 7 48 c3 26 19 75 35 109 l28 62 62 -27 62 -27 -6 -44z
m634 37 c16 -35 32 -84 35 -110 l7 -48 -91 0 -91 0 0 39 c0 21 -3 58 -6 82
l-6 44 59 27 c32 14 59 26 61 27 2 1 16 -27 32 -61z m-422 -24 c8 -2 12 -25
12 -69 l0 -65 -95 0 -95 0 5 43 c4 23 8 57 11 75 l5 32 72 -6 c40 -3 78 -7 85
-10z m226 -16 c3 -18 7 -52 11 -75 l5 -43 -95 0 -96 0 3 68 3 67 60 6 c111 11
104 12 109 -23z m-442 -233 c3 -37 9 -73 12 -80 3 -8 -12 -19 -42 -30 -26 -10
-53 -23 -61 -29 -20 -15 -47 23 -71 101 -34 110 -35 108 67 106 l88 -1 7 -67z
m226 1 l3 -66 -38 0 c-21 -1 -58 -5 -83 -10 -25 -4 -47 -7 -48 -5 -5 5 -21
138 -17 145 2 3 43 4 92 3 l88 -1 3 -66z m225 32 c-7 -89 -14 -120 -30 -114
-8 3 -46 9 -84 12 l-69 7 0 62 c0 34 2 64 4 66 2 2 44 3 93 2 l88 -2 -2 -33z
m227 16 c0 -35 -39 -150 -59 -175 -14 -18 -22 -21 -32 -13 -8 6 -35 19 -60 28
l-46 18 8 36 c5 21 9 55 9 78 0 22 2 43 4 45 2 2 43 4 90 4 81 0 86 -1 86 -21z
m-891 -71 c21 -81 64 -156 127 -219 79 -80 145 -111 287 -139 l27 -5 0 -326 0
-326 -31 26 c-64 55 -75 56 -425 56 l-324 0 0 474 c0 418 2 476 16 490 13 13
42 16 164 16 l148 0 11 -47z m1245 31 c14 -14 16 -72 16 -490 l0 -474 -324 0
c-350 0 -361 -1 -425 -56 l-31 -26 0 326 0 326 23 4 c12 3 40 8 62 11 155 25
313 180 356 348 l11 47 148 0 c122 0 151 -3 164 -16z m-1624 -630 l0 -525 25
-24 24 -25 791 0 791 0 24 25 25 24 0 524 c0 288 3 527 6 530 4 3 15 2 25 -4
18 -9 19 -31 17 -587 l-3 -577 -381 -5 c-359 -5 -383 -6 -403 -24 -12 -11 -25
-33 -29 -50 -8 -31 -9 -31 -72 -31 -63 0 -64 0 -72 31 -4 17 -17 39 -29 50
-20 18 -44 19 -403 24 l-381 5 -3 575 c-2 526 -1 576 14 587 9 7 21 10 25 7 5
-3 9 -241 9 -530z m820 396 c0 -60 -3 -110 -8 -110 -11 0 -55 32 -74 55 -23
26 -68 119 -68 139 0 17 23 23 98 25 l52 1 0 -110z m187 96 c10 -10 -15 -76
-50 -127 -26 -40 -71 -79 -91 -79 -3 0 -6 50 -6 111 l0 112 70 -5 c39 -3 74
-8 77 -12z m-351 -101 c23 -47 39 -85 37 -85 -16 0 -106 55 -143 88 l-45 40
45 21 c25 11 50 20 55 20 6 0 29 -38 51 -84z m474 64 l45 -21 -45 -40 c-37
-33 -127 -88 -143 -88 -9 0 79 169 88 169 6 0 30 -9 55 -20z m-387 -862 c36
-27 57 -58 71 -104 l7 -23 -371 0 c-237 0 -378 4 -391 10 -16 9 -19 22 -19 81
l0 70 333 -3 334 -3 36 -28z m897 -37 c0 -58 -3 -71 -19 -80 -27 -14 -761 -14
-761 0 0 18 37 84 56 102 52 47 61 48 402 48 l322 0 0 -70z"/>
<path d="M637 1684 c-4 -4 -7 -13 -7 -21 0 -10 22 -13 91 -13 81 0 90 2 87 18
-3 14 -16 17 -84 20 -44 1 -83 0 -87 -4z"/>
<path d="M632 1463 c3 -16 15 -18 88 -18 73 0 85 2 88 18 3 15 -6 17 -88 17
-82 0 -91 -2 -88 -17z"/>
<path d="M637 1273 c-4 -3 -7 -12 -7 -20 0 -10 53 -13 281 -13 262 0 280 1
277 18 -3 16 -25 17 -274 20 -149 1 -273 -1 -277 -5z"/>
<path d="M632 1053 c3 -17 24 -18 278 -18 254 0 275 1 278 18 3 16 -15 17
-278 17 -263 0 -281 -1 -278 -17z"/>
<path d="M1837 1684 c-4 -4 -7 -13 -7 -21 0 -10 22 -13 91 -13 81 0 90 2 87
18 -3 14 -16 17 -84 20 -44 1 -83 0 -87 -4z"/>
<path d="M1832 1463 c3 -16 15 -18 88 -18 73 0 85 2 88 18 3 15 -6 17 -88 17
-82 0 -91 -2 -88 -17z"/>
<path d="M1457 1273 c-4 -3 -7 -12 -7 -20 0 -10 53 -13 281 -13 262 0 280 1
277 18 -3 16 -25 17 -274 20 -149 1 -273 -1 -277 -5z"/>
<path d="M1452 1053 c3 -17 24 -18 278 -18 254 0 275 1 278 18 3 16 -15 17
-278 17 -263 0 -281 -1 -278 -17z"/>
</g>
</svg>
